# xmcd CD database file
#
# Track frame offsets:
#	150
#	14017
#	26647
#	38005
#	50260
#	63327
#	76522
#	90712
#	104857
#	119700
#	133827
#	147267
#	161572
#	174907
#
# Disc length: 2510 seconds
#
# Revision: 0
# Processed by: cddbd v1.5.2PL0 Copyright (c) Steve Scherf et al.
# Submitted via: CDex 1.77
#
DISCID=bc09cc0e
DTITLE=Ella Fitzgerald - First lady of song CD3
DYEAR=1900
DGENRE=Jazz
TTITLE0=Tain't what you do
TTITLE1=Big boy blue
TTITLE2=Ph yes, another guess
TTITLE3=My last affair
TTITLE4=Organ grinder's swing
TTITLE5=Shine
TTITLE6=Darktown strutter's ball
TTITLE7=Everyone's wrong but me
TTITLE8=Deep in the heart of Texas
TTITLE9=Bei mir bist du schoen
TTITLE10=It's my turn now
TTITLE11=This time it's real
TTITLE12=I was doing all right
TTITLE13=It's wonderful
EXTD=
EXTT0=
EXTT1=
EXTT2=
EXTT3=
EXTT4=
EXTT5=
EXTT6=
EXTT7=
EXTT8=
EXTT9=
EXTT10=
EXTT11=
EXTT12=
EXTT13=
PLAYORDER=
